# xmcd
#
# Track frame offsets:
#	150
#	20277
#	47284
#	66097
#	83940
#	102000
#	126741
#	144607
#	165630
#	184491
#	204634
#	223359
#	236309
#
# Disc length: 3466 seconds
#
# Revision: 0
# Processed by: cddbd v1.5.2PL0 Copyright (c) Steve Scherf et al.
# Submitted via: EasyCDDAExtractor 16.0.3.2
#
DISCID=bd0d880d
DTITLE=Henry Martínez - Ya Eres Abril
DYEAR=2003
DGENRE=WORLD-ETHNIC
TTITLE0=Amando Y Conversando
TTITLE1=Ay, María!
TTITLE2=Claro Que Tengo Miedo
TTITLE3=Ya Eres Abril
TTITLE4=Dos Hembras
TTITLE5=No Sé En Que Momento Te Perdí
TTITLE6=Chateando
TTITLE7=Hojarasca Gris
TTITLE8=Amor De Noche
TTITLE9=Armando
TTITLE10=A Tu Regreso
TTITLE11=Sentida Canción
TTITLE12=Dos Hembras (Versión Larga)
EXTD=
EXTT0=
EXTT1=
EXTT2=
EXTT3=
EXTT4=
EXTT5=
EXTT6=
EXTT7=
EXTT8=
EXTT9=
EXTT10=
EXTT11=
EXTT12=
PLAYORDER=
